<?xml version="1.0" encoding="iso-8859-1"?>
<!-- Generator: Adobe Illustrator 19.0.0, SVG Export Plug-In . SVG Version: 6.00 Build 0)  -->
<svg version="1.1" id="Layer_1" xmlns="http://www.w3.org/2000/svg" xmlns:xlink="http://www.w3.org/1999/xlink" x="0px" y="0px"
	 viewBox="0 0 512 512" style="enable-background:new 0 0 512 512;" xml:space="preserve">
<path style="fill:#FFCD54;" d="M0,256.006C0,397.402,114.606,512.004,255.996,512C397.394,512.004,512,397.402,512,256.006
	C512.009,114.61,397.394,0,255.996,0C114.606,0,0,114.614,0,256.006z"/>
<path style="fill:#F4BA41;" d="M512,256.005c0.002-29.945-5.187-58.665-14.633-85.373c-0.325-0.369-76.671-76.829-77.253-77.253
	c-1.254-1.722-3.185-2.913-5.479-2.913H97.365c-3.812,0-6.897,3.089-6.897,6.898v317.269c0,2.292,1.191,4.225,2.912,5.479
	c0.423,0.582,75.627,75.785,76.209,76.208c0.298,0.409,0.677,0.722,1.049,1.049c26.704,9.443,55.42,14.629,85.359,14.629
	C397.394,512.004,512,397.401,512,256.005z"/>
<g>
	<path style="fill:#F4F6F9;" d="M414.635,90.468H97.365c-3.812,0-6.897,3.088-6.897,6.897v317.269c0,3.809,3.085,6.897,6.897,6.897
		h317.269c3.812,0,6.897-3.088,6.897-6.897V97.365C421.532,93.556,418.447,90.468,414.635,90.468z M407.738,407.738H104.262V104.262
		h303.475V407.738z"/>
	<path style="fill:#F4F6F9;" d="M189.049,322.951c1.347,1.347,3.111,2.02,4.877,2.02c1.764,0,3.53-0.673,4.877-2.02L256,265.753
		l57.198,57.198c1.347,1.347,3.111,2.02,4.877,2.02c1.764,0,3.53-0.673,4.877-2.02c2.694-2.694,2.694-7.059,0-9.753L265.753,256
		l57.198-57.198c2.694-2.694,2.694-7.059,0-9.753s-7.059-2.694-9.753,0L256,246.247l-57.198-57.198
		c-2.694-2.694-7.059-2.694-9.753,0s-2.694,7.059,0,9.753L246.247,256l-57.198,57.198
		C186.355,315.892,186.355,320.257,189.049,322.951z"/>
</g>
<g>
</g>
<g>
</g>
<g>
</g>
<g>
</g>
<g>
</g>
<g>
</g>
<g>
</g>
<g>
</g>
<g>
</g>
<g>
</g>
<g>
</g>
<g>
</g>
<g>
</g>
<g>
</g>
<g>
</g>
</svg>
